<?xml version="1.0" encoding="iso-8859-1"?>
<!-- Generator: Adobe Illustrator 18.0.0, SVG Export Plug-In . SVG Version: 6.00 Build 0)  -->
<!DOCTYPE svg PUBLIC "-//W3C//DTD SVG 1.1//EN" "http://www.w3.org/Graphics/SVG/1.1/DTD/svg11.dtd">
<svg version="1.1" id="Capa_1" xmlns="http://www.w3.org/2000/svg" xmlns:xlink="http://www.w3.org/1999/xlink" x="0px" y="0px"
	 viewBox="0 0 487.077 487.077" style="enable-background:new 0 0 487.077 487.077;" xml:space="preserve">
<g id="XMLID_68_">
	<path id="XMLID_69_" d="M342.183,199.761c28.61-38.631,62.234-72.264,100.857-100.873c-15.364-30.154-38.114-52.912-68.268-68.275
		c-28.61,38.631-62.234,72.255-100.873,100.865C289.263,161.638,312.014,184.389,342.183,199.761z"/>
	<path id="XMLID_70_" d="M118.067,287.316c-7.928,10.705-16.333,20.944-25.042,30.877c5.859-20.553,10.556-44.14,10.699-67.359
		c8.66-2.651,24.342-8.9,35.74-22.099c16.495-19.072,17.466-45.247,17.466-45.247s-25.761,4.738-42.254,23.818
		c-5.938,6.885-9.822,14.671-12.401,21.835c-1.99-14.4-6.227-28.124-13.771-40.208c5.143-9.496,9.919-21.412,11.129-34.873
		c2.896-32.272-15.715-60.308-15.715-60.308s-23.324,24.271-26.237,56.534c-1.289,14.424,1.768,27.83,5.492,38.44
		c-4.981-2.817-10.617-5.277-16.858-6.727C22.703,176.533,0,187.462,0,187.462s15.587,19.782,39.196,25.249
		c17.052,3.94,33.467-0.621,41.363-3.479c16.986,42.66-1.355,103.589-14.217,136.957c-15.411,14.974-31.699,29.071-49.148,42
		c15.364,30.153,38.114,52.904,68.284,68.276c28.609-38.631,62.234-72.255,100.856-100.865
		C170.974,325.438,148.222,302.688,118.067,287.316z"/>
	<path id="XMLID_71_" d="M430.527,309.685c32.27-2.907,56.55-26.229,56.55-26.229s-28.036-18.619-60.308-15.73
		c-13.469,1.211-25.378,5.995-34.883,11.13c-12.083-7.538-25.791-11.782-40.183-13.772c7.163-2.587,14.933-6.456,21.811-12.394
		c19.089-16.493,23.816-42.253,23.816-42.253s-26.174,0.978-45.247,17.465c-13.196,11.391-19.439,27.048-22.097,35.726
		c-24.517,0.144-49.449,5.382-70.783,11.686c17.193-17.322,35.663-33.387,55.483-48.074c-15.363-30.153-38.114-52.904-68.267-68.274
		c-28.609,38.631-62.234,72.255-100.873,100.873c15.363,30.153,38.114,52.904,68.284,68.274
		c7.036-9.496,14.375-18.667,22.017-27.558c30.219-11.534,81.706-26.994,122.477-17.815c1.576,10.683,6.688,33.88,22.8,51.854
		c21.635,24.112,54.861,29.604,54.861,29.604s-1.927-31.021-21.286-54.854C419.812,309.892,425.066,310.177,430.527,309.685z"/>
</g>
<g>
</g>
<g>
</g>
<g>
</g>
<g>
</g>
<g>
</g>
<g>
</g>
<g>
</g>
<g>
</g>
<g>
</g>
<g>
</g>
<g>
</g>
<g>
</g>
<g>
</g>
<g>
</g>
<g>
</g>
</svg>
