<?xml version="1.0" encoding="iso-8859-1"?>
<!-- Generator: Adobe Illustrator 19.0.0, SVG Export Plug-In . SVG Version: 6.00 Build 0)  -->
<svg version="1.1" id="Capa_1" xmlns="http://www.w3.org/2000/svg" xmlns:xlink="http://www.w3.org/1999/xlink" x="0px" y="0px"
	 viewBox="0 0 512.002 512.002" style="enable-background:new 0 0 512.002 512.002;" xml:space="preserve">
<g>
	<g>
		<path d="M504.557,436.733c-58.163-15.58-71.46-100.594-71.586-101.441c-0.404-2.753-1.948-5.212-4.238-6.797
			c-2.289-1.582-5.148-2.14-7.867-1.548c-0.142,0.032-14.407,3.066-32.652,0.269c-21.32-3.272-38.961-12.822-52.564-28.383
			c18.107-24.007,44.12-33.122,44.377-33.21c2.611-0.875,4.747-2.789,5.909-5.287c1.163-2.497,1.247-5.366,0.235-7.927
			c-0.318-0.806-31.314-81.072,11.267-123.653c1.225-1.225,2.067-2.689,2.527-4.241c1.011-3.415,0.169-7.262-2.527-9.957
			c-1.961-1.96-4.53-2.94-7.099-2.94c-1.606,0-3.212,0.383-4.669,1.148c-0.291,0.154-0.577,0.321-0.855,0.505
			c-0.557,0.367-1.085,0.796-1.575,1.286c-42.58,42.584-122.847,11.586-123.643,11.272c-2.562-1.019-5.431-0.938-7.933,0.225
			c-2.502,1.163-4.414,3.301-5.292,5.916c-0.093,0.279-9.008,26.175-33.208,44.389c-15.566-13.604-25.118-31.247-28.388-52.571
			c-2.798-18.249,0.241-32.516,0.265-32.628c0.611-2.723,0.057-5.578-1.521-7.88c-1.578-2.301-4.048-3.843-6.808-4.253
			c-0.856-0.13-85.869-13.418-101.45-71.579c-1.435-5.355-6.941-8.537-12.295-7.099C60.626,0.98,58.7,2.386,57.394,4.219
			c-1.679,2.356-2.331,5.416-1.525,8.429c0.001,0.004,0.003,0.008,0.004,0.013C71.44,70.817,4.471,124.826,3.801,125.358
			c-2.155,1.705-3.509,4.229-3.76,6.965c-0.251,2.737,0.64,5.466,2.448,7.537c0.097,0.11,9.763,11.287,16.364,28.848
			c8.595,22.866,8.236,45.468-1.065,67.177c-1.825,4.26-0.498,9.215,3.213,11.991c18.879,14.129,30.349,33.354,34.091,57.14
			c2.074,13.184,1.107,24.289,0.401,29.494c-0.605,0.547-1.203,1.105-1.782,1.685c-18.788,18.789-18.788,49.36,0,68.15
			c9.395,9.394,21.73,14.09,34.072,14.09c2.062,0,4.123-0.144,6.171-0.406c-0.26,2.039-0.406,4.104-0.406,6.192
			c0,12.87,5.013,24.972,14.114,34.074c9.391,9.391,21.726,14.086,34.065,14.085c12.336-0.001,24.678-4.696,34.073-14.084
			c0.571-0.57,1.12-1.181,1.67-1.788c5.208-0.711,16.321-1.681,29.517,0.395c23.783,3.741,43.006,15.207,57.135,34.083
			c2.777,3.71,7.731,5.039,11.989,3.213c21.715-9.297,44.32-9.655,67.188-1.062c17.563,6.599,28.74,16.264,28.829,16.342
			c1.842,1.628,4.21,2.517,6.648,2.517c0.296,0,0.594-0.013,0.892-0.039c2.747-0.245,5.272-1.609,6.982-3.772
			c0.537-0.679,54.363-67.686,112.712-52.059c0.395,0.105,0.789,0.179,1.184,0.236c0.12,0.017,0.24,0.027,0.36,0.04
			c0.282,0.03,0.563,0.049,0.844,0.055c0.072,0.001,0.145,0.014,0.217,0.014c0.077,0,0.154-0.008,0.231-0.01
			c0.115-0.003,0.229-0.008,0.343-0.014c0.198-0.011,0.393-0.029,0.588-0.052c0.109-0.013,0.219-0.024,0.327-0.041
			c0.215-0.032,0.427-0.074,0.638-0.12c0.083-0.018,0.169-0.032,0.251-0.052c0.291-0.071,0.578-0.155,0.859-0.251
			c0.054-0.019,0.106-0.042,0.161-0.062c0.228-0.082,0.452-0.171,0.673-0.269c0.095-0.042,0.187-0.089,0.281-0.135
			c0.177-0.085,0.351-0.174,0.523-0.269c0.098-0.055,0.196-0.112,0.293-0.171c0.164-0.098,0.324-0.202,0.483-0.31
			c0.091-0.062,0.183-0.123,0.272-0.189c0.168-0.122,0.329-0.252,0.489-0.385c0.071-0.059,0.144-0.114,0.213-0.176
			c0.224-0.197,0.442-0.403,0.649-0.619c0.024-0.026,0.046-0.054,0.07-0.08c0.181-0.194,0.353-0.395,0.519-0.603
			c0.063-0.08,0.121-0.164,0.183-0.246c0.12-0.163,0.239-0.327,0.35-0.498c0.063-0.096,0.122-0.195,0.183-0.293
			c0.101-0.168,0.198-0.338,0.289-0.513c0.054-0.103,0.108-0.206,0.159-0.31c0.091-0.19,0.175-0.385,0.255-0.581
			c0.038-0.094,0.08-0.187,0.116-0.283c0.109-0.295,0.21-0.596,0.293-0.908C513.092,443.672,509.913,438.168,504.557,436.733z
			 M218.053,197.383c0.005-0.003,0.009-0.006,0.013-0.009c0.034-0.021,0.067-0.043,0.1-0.065
			c24.095-15.296,37.327-37.234,43.293-49.598c18.497,5.819,61.155,16.21,99.413,3.415c-12.793,38.258-2.402,80.916,3.416,99.413
			c-12.339,5.952-34.209,19.143-49.491,43.14c-0.136,0.2-0.261,0.405-0.38,0.611c-7.063,11.235-11.895,23.6-14.396,36.858
			c-25.58,4.848-47.915,18.422-64.951,39.565c-0.02,0.025-0.04,0.051-0.06,0.076c-0.028,0.035-0.056,0.069-0.083,0.105
			c-7.405,9.211-12.414,18.125-15.494,24.499c-6.714-2.119-16.639-4.84-28.445-6.808c6.497-8.393,10.03-18.631,10.03-29.418
			c0-9.455-2.715-18.491-7.759-26.232l75.857-75.856c3.92-3.92,3.921-10.277,0-14.199c-3.921-3.918-10.277-3.919-14.199,0
			l-75.857,75.857c-7.74-5.045-16.776-7.759-26.232-7.759c-10.8,0-21.049,3.541-29.448,10.053c-1.975-11.8-4.69-21.743-6.8-28.464
			c6.375-3.081,15.303-8.099,24.532-15.517c0.026-0.02,0.052-0.041,0.078-0.062c0.029-0.024,0.059-0.046,0.088-0.07
			c21.147-17.049,34.72-39.38,39.569-64.943C194.235,209.451,206.721,204.557,218.053,197.383z M39.032,236.619
			c8.555-24.472,8.004-50.502-1.679-75.752c-4.317-11.259-9.639-20.234-13.679-26.176C37.958,121.589,68.297,89.835,76.35,50.3
			c26.661,30.125,68.647,42.469,87.648,46.71c-0.635,7.089-0.899,17.315,0.807,28.983c3.485,23.844,13.837,44.618,30.189,60.871
			c-7.568,3.203-15.638,5.332-24.129,6.344c-4.602,0.549-8.23,4.176-8.779,8.777c-2.21,18.494-9.528,34.665-21.762,48.277
			l-25.686-95.866c-1.435-5.356-6.94-8.536-12.295-7.099c-5.356,1.436-8.533,6.939-7.099,12.295l28.291,105.589
			c-12.18,8.66-22.596,12.282-22.691,12.314c-2.619,0.879-4.761,2.798-5.919,5.306c-1.159,2.508-1.234,5.382-0.206,7.947
			c0.074,0.185,5.67,14.334,8.928,34.057c-8.744-3.027-18.233-3.502-27.24-1.341c0.102-5.959-0.196-13.029-1.352-20.731
			C71.077,276.238,58.675,253.534,39.032,236.619z M107.661,390.148c-10.96,10.958-28.793,10.96-39.753,0s-10.96-28.794,0-39.754
			c0.93-0.931,1.911-1.786,2.939-2.561c10.435-7.904,25.028-7.413,34.954,0.866c-2.724,12.313-0.515,25.263,6.139,35.949
			C110.758,386.63,109.332,388.472,107.661,390.148z M164.185,441.134c-0.808,1.063-1.677,2.06-2.58,2.963
			c-10.962,10.957-28.793,10.957-39.746,0.002c-5.31-5.309-8.233-12.367-8.233-19.876s2.924-14.568,8.233-19.878
			c1.672-1.672,3.512-3.096,5.494-4.278c7.693,4.79,16.557,7.281,25.512,7.281c3.485,0,6.983-0.38,10.432-1.144
			C171.572,416.119,172.072,430.714,164.185,441.134z M172.706,379.046c-2.883,2.883-6.262,5.058-10.046,6.463
			c-9.378,3.493-19.945,1.723-27.624-4.588c-0.138-0.12-0.276-0.237-0.42-0.35c-0.6-0.513-1.152-1.015-1.662-1.527
			c-0.547-0.547-1.039-1.078-1.495-1.616c-0.071-0.091-0.145-0.182-0.219-0.271c-6.441-7.71-8.261-18.372-4.756-27.806
			c1.422-3.804,3.598-7.188,6.469-10.06c5.309-5.31,12.368-8.233,19.877-8.233c7.507,0.001,14.567,2.924,19.876,8.234
			c5.31,5.31,8.234,12.368,8.234,19.877C180.94,366.676,178.015,373.736,172.706,379.046z M377.314,488.314
			c-5.941-4.04-14.917-9.361-26.178-13.678c-25.25-9.68-51.284-10.228-75.759-1.681c-16.914-19.639-39.617-32.039-66.11-36.015
			c-7.705-1.158-14.776-1.455-20.736-1.351c2.161-9.019,1.681-18.518-1.354-27.267c19.695,3.244,33.858,8.87,34.035,8.941
			c1.211,0.491,2.491,0.735,3.771,0.735c1.435,0,2.867-0.308,4.198-0.92c2.517-1.159,4.442-3.306,5.322-5.933
			c0.039-0.116,3.547-10.409,12.297-22.686l105.615,28.293c0.87,0.233,1.744,0.345,2.604,0.345c4.433,0,8.489-2.959,9.691-7.444
			c1.435-5.356-1.744-10.861-7.1-12.295l-95.888-25.687c13.608-12.232,29.784-19.551,48.289-21.76
			c4.602-0.55,8.229-4.177,8.778-8.779c1.013-8.496,3.143-16.569,6.351-24.138c16.251,16.352,37.025,26.708,60.868,30.193
			c11.668,1.706,21.893,1.445,28.979,0.81c4.242,18.998,16.588,60.985,46.717,87.648
			C422.169,443.697,390.417,474.032,377.314,488.314z"/>
	</g>
</g>
<g>
	<g>
		<path d="M282.768,219.189c-12.92,0-12.941,20.079,0,20.079C295.688,239.268,295.709,219.189,282.768,219.189z"/>
	</g>
</g>
<g>
</g>
<g>
</g>
<g>
</g>
<g>
</g>
<g>
</g>
<g>
</g>
<g>
</g>
<g>
</g>
<g>
</g>
<g>
</g>
<g>
</g>
<g>
</g>
<g>
</g>
<g>
</g>
<g>
</g>
</svg>
